<?xml version="1.0" encoding="UTF-8"?><svg id="_レイヤー_2" xmlns="http://www.w3.org/2000/svg" viewBox="0 0 133.65 120.86"><defs><style>.cls-1{fill:#2778be;stroke-width:0px;}</style></defs><g id="_レイヤー_2のコピー"><path id="_パス_43926-2" class="cls-1" d="m51.19,2.05c.63,1.34.79,2.86.45,4.31l-1.25-.57c-1.45-.48-3.04-.27-4.31.57-1.25.83-1.98,2.24-1.93,3.74-.11,1.69.78,3.29,2.27,4.08,1,.57,2.16.77,3.29.57-.91,3.52-2.95,8.39-4.99,9.64-1.37.7-3.02.61-4.31-.23-1.68-1.22-2.21-3.49-1.25-5.33,2.16-3.06,4.08-10.09,4.54-15.65.11-2.15,2.72-3.06,3.74-3.17,1.5-.07,2.93.66,3.74,1.93"/><path id="_パス_43927-2" class="cls-1" d="m113.91,5.56v9.64c-1-.68-2.21-.96-3.4-.79-1.59.13-3.01,1.08-3.74,2.5-.66,1.46-.57,3.15.23,4.54,1.21,1.62,3.25,2.37,5.22,1.93.59-.13,1.13-.41,1.59-.79v16.45c.13,2.44-1.75,4.52-4.19,4.65-.12,0-.23,0-.35,0-1.18.01-2.32-.43-3.18-1.25-.88-.91-1.37-2.13-1.36-3.4V5.56c-.03-1.22.42-2.4,1.25-3.29.91-.88,2.13-1.37,3.4-1.36,1.22-.04,2.41.41,3.29,1.25.87.91,1.32,2.14,1.25,3.4"/><path id="_パス_43928-2" class="cls-1" d="m30.43,3.97c1.26-.06,2.48.39,3.4,1.25.66.66,1.03,1.56,1.02,2.5,0,.91-.34,4.08-4.42,4.08h-3.97v5.33h5.33c1.22-.06,2.41.39,3.29,1.25.69.73,1.06,1.71,1.02,2.72,0,2.19-1.76,3.98-3.96,3.98-.12,0-.24,0-.36-.01h-5.44v1.02c-.12,1.98-.55,3.93-1.25,5.78-2.1,5.86-7.15,10.18-13.27,11.34-4.76.79-7.26.45-8.85-1.93-.94-1.52-.85-3.46.23-4.88,1.36-1.7,3.29-1.93,5.33-2.04s3.86-.34,5.33-1.81,2.72-3.18,3.52-7.49l.57.23c.69.27,1.42.42,2.16.45,2.57,0,4.65-2.08,4.66-4.64,0-1.18-.45-2.32-1.25-3.18-.92-.86-2.15-1.31-3.4-1.25-.91,0-1.81.23-2.61.68v-5.56H5.93c-1.25.05-2.48-.4-3.4-1.25-.69-.69-1.06-1.64-1.02-2.61-.03-1.06.38-2.09,1.13-2.84.87-.78,2.01-1.19,3.18-1.13h24.61Z"/><path id="_パス_43929-2" class="cls-1" d="m69.68,6.13c1.29-.05,2.55.39,3.52,1.25.76.74,1.18,1.77,1.13,2.84,0,2.38-1.81,3.97-4.65,3.97h-13.04c-1.22.04-2.41-.41-3.29-1.25-.73-.71-1.14-1.7-1.13-2.72-.02-1.06.39-2.08,1.13-2.84.89-.83,2.07-1.28,3.29-1.25h13.04Z"/><path id="_パス_43930-2" class="cls-1" d="m90.09,17.02v8.05c-.06,1.83-1.57,3.29-3.4,3.29-.86-.02-1.68-.39-2.27-1.02-.65-.62-1.02-1.48-1.02-2.38v-7.83c0-.9.37-1.76,1.02-2.38.6-.59,1.42-.92,2.27-.91.93,0,1.83.37,2.5,1.02.59.6.92,1.42.91,2.27"/><path id="_パス_43931-2" class="cls-1" d="m80.79,17.02v8.05c.06,1.75-1.3,3.23-3.06,3.29-.08,0-.15,0-.23,0-1.82.06-3.34-1.36-3.4-3.18,0-.04,0-.07,0-.11v-7.94c.01-.9.38-1.75,1.02-2.38.6-.6,1.42-.93,2.27-.91.88-.02,1.74.31,2.38.91.61.64.94,1.5.91,2.38"/><path id="_パス_43932-2" class="cls-1" d="m100.76,17.13v1.59c0,1.7,0,3.63-.11,5.9-.14,7.56-4.78,14.3-11.8,17.13-1.47.57-6.35,2.27-8.96.11-.82-.75-1.24-1.84-1.13-2.95,0-1.25.79-3.06,2.16-3.29,3.29-.57,7.94-1.25,10.77-6.12,1.81-3.06,1.59-8.39,1.47-11.23v-1.13c0-.84.32-1.66.91-2.27.73-.79,1.76-1.25,2.84-1.25,1.08-.01,2.11.44,2.84,1.25.61.6.98,1.41,1.02,2.27"/><path id="_パス_43933-2" class="cls-1" d="m129.45,14.64c1.11,0,2.17.46,2.95,1.25.79.83,1.23,1.92,1.25,3.06,0,2.32-1.88,4.2-4.2,4.2h-9.3c-1.1.03-2.16-.38-2.95-1.13-.81-.81-1.26-1.92-1.25-3.06.03-1.16.52-2.26,1.36-3.06.78-.79,1.84-1.24,2.95-1.25h9.19Z"/><path id="_パス_43934-2" class="cls-1" d="m66.5,18.95c.68,2.04-.23,8.39-1.13,11.23-2.13,6.78-7.86,11.81-14.86,13.04-1.89.5-3.91-.02-5.33-1.36-1.07-1.25-1.41-2.97-.91-4.54.79-2.27,2.38-2.61,4.42-3.06,1.84-.19,3.6-.85,5.1-1.93,3.97-3.06,4.42-7.83,4.65-12.7h0c.45-1.68,1.81-2.96,3.52-3.29,2.01-.39,4,.78,4.65,2.72"/><path id="_パス_43935-2" class="cls-1" d="m16.03,21.1c-.06,2.19-1.89,3.92-4.08,3.86,0,0,0,0,0,0h-7.15c-1.17.08-2.32-.33-3.18-1.13-.69-.73-1.06-1.71-1.02-2.72.11-3.63,3.4-3.86,4.42-3.86h6.92c2.19-.06,4.02,1.66,4.08,3.85,0,.04,0,.08,0,.12"/><path id="_パス_43938-2" class="cls-1" d="m123.44,117.62c-1.78,1.88-4.45,2.61-6.94,1.91-2.05-.73-3.6-2.41-4.16-4.51-.69-2.26.52-4.16,1.91-6.24,1.39-1.63,2.45-3.52,3.12-5.55.69-2.95.69-9.89-2.43-11.97l-.69-.35c.26,4.95-.15,9.91-1.21,14.74-1.25,4.67-4.15,8.74-8.15,11.45-6.24,4.34-16.65,4.34-23.42.17-3.73-2.36-6.78-5.64-8.85-9.54-2.52-4.85-3.37-10.4-2.43-15.79,1.65-9.01,8.44-16.21,17.35-18.39v-15.96c0-.58.06-1.16.17-1.73.77-3.27,4.05-5.3,7.32-4.52,2.49.59,4.35,2.67,4.64,5.22h15.44c2.04.01,3.97.97,5.2,2.6.93,1.5,1.25,3.3.87,5.03-.85,2.72-3.39,4.56-6.24,4.51h-15.44v37.47l.35-.35c2.6-2.08,2.6-7.29,2.6-9.19v-19.43c-.21-2.1.72-4.15,2.43-5.38,2.9-1.87,6.76-1.03,8.63,1.87.32.5.57,1.04.74,1.6,6.81,2.81,12.19,8.25,14.92,15.09,1.64,4.56,1.95,9.5.87,14.22-1.01,4.84-3.29,9.33-6.59,13.01m-36.26-31.05c-2.37,1.16-4.19,3.22-5.03,5.72-1.67,4.17-.87,8.93,2.08,12.32.82.94,1.83,1.71,2.95,2.26v-20.12"/><path id="_パス_43939-2" class="cls-1" d="m85.45,62.8c0,3.93-3.18,7.11-7.11,7.11-1.89.02-3.71-.73-5.03-2.08-2.78-2.78-2.78-7.28,0-10.06,2.78-2.78,7.28-2.78,10.06,0,1.34,1.33,2.09,3.15,2.09,5.03"/><path id="_パス_43936-2" class="cls-1" d="m35.38,56.23c4-.13,7.88,1.37,10.75,4.16,2.65,2.75,4.14,6.41,4.16,10.23.03,4.3-1.88,8.38-5.2,11.1-2.9,2.54-6.77,3.68-10.58,3.12l-1.91-.35c-3.82-.87-9.54-2.08-14.22,1.56-3.47,2.64-5.2,6.97-4.51,11.27.73,3.96,3.4,7.28,7.11,8.85,4.8,1.89,10.26.73,13.87-2.95,1.96-1.53,4.66-1.67,6.76-.35,2.73,1.72,4.01,5.04,3.12,8.15-.87,3.12-4.68,7.11-10.58,8.85-8.67,2.43-21.33.69-28.79-9.02-5.2-6.65-6.52-15.54-3.47-23.41,1.74-4.8,4.88-8.97,9.02-11.97,3.97-2.76,8.7-4.22,13.53-4.16,2.62-.1,5.24.13,7.8.69l3.12.52c.44.06.88-.07,1.21-.35.33-.32.51-.76.52-1.22-.09-1.15-1.09-2-2.24-1.91,0,0,0,0-.01,0h-13.18c-2.19-.11-4.17-1.36-5.2-3.3-.97-2-.84-4.36.35-6.24,1.43-1.99,3.81-3.05,6.24-2.77l12.31-.52Z"/><path id="_パス_43937-2" class="cls-1" d="m48.22,89.18l14.05,12.49c1.76,1.7,2.42,4.24,1.73,6.59-.84,2.38-3.03,4.02-5.55,4.16-2,.04-3.92-.71-5.38-2.08l-13.53-12.31c-2.37-2.51-2.26-6.46.25-8.83.85-.8,1.9-1.35,3.04-1.58,1.91-.46,3.93.06,5.38,1.39"/><path id="_パス_43940-2" class="cls-1" d="m14.22,62.64c0,3.93-3.18,7.11-7.11,7.11-1.89,0-3.7-.75-5.03-2.08C.72,66.36-.04,64.54,0,62.64c0-3.93,3.19-7.11,7.11-7.11,3.93,0,7.11,3.18,7.11,7.11"/><path id="_パス_43941-2" class="cls-1" d="m69.72,82.93c.1,5.75-4.48,10.48-10.23,10.58-5.75.1-10.48-4.48-10.58-10.23,0-.12,0-.24,0-.35.09-5.71,4.7-10.31,10.41-10.41,5.75,0,10.41,4.66,10.41,10.41m-6.76,0c0-.97-.38-1.9-1.04-2.6-.69-.68-1.63-1.05-2.6-1.04-2.04,0-3.72,1.6-3.82,3.64,0,2.11,1.71,3.82,3.82,3.82s3.82-1.71,3.82-3.82"/></g></svg>